<svg width="363" height="362" fill="none" xmlns="http://www.w3.org/2000/svg"><path d="m209.795 62.646 110.878-20.701-20.701 110.878-.326 1.748.85 1.561 53.951 99.055-111.848 14.575-1.763.23-1.222 1.291-77.535 81.92-48.425-101.87-.763-1.606-1.606-.763-101.87-48.425 81.92-77.534 1.291-1.223.23-1.763L107.43 8.171l99.055 53.951 1.561.85 1.748-.326Z" fill="#828282" stroke="#000" stroke-width="10"/><path d="M122.733 194v-38.5h20.46v5.06h-15.345v9.57h10.23l-1.155 5.115h-9.075v13.64h15.345V194h-20.46Zm30.31 0v-27.5h21.835c1.1 0 2.035.403 2.805 1.21.77.77 1.155 1.705 1.155 2.805V194h-5.115v-20.35c0-.55-.202-1.008-.605-1.375a1.956 1.956 0 0 0-1.43-.605h-3.135V194h-5.17v-20.35c0-.55-.202-1.008-.605-1.375a1.956 1.956 0 0 0-1.43-.605h-3.135V194h-5.17Zm32.578 13.75V166.5h11.495c1.137 0 2.09.385 2.86 1.155s1.155 1.723 1.155 2.86v19.47c0 1.137-.385 2.09-1.155 2.86s-1.723 1.155-2.86 1.155h-6.325v13.75h-5.17Zm5.17-18.92h3.19c.514 0 .972-.202 1.375-.605.404-.403.605-.862.605-1.375v-13.145c0-.623-.201-1.118-.605-1.485-.403-.367-.861-.55-1.375-.55h-3.19v17.16Zm20.448 5.17c-1.1 0-2.053-.385-2.86-1.155-.77-.77-1.155-1.723-1.155-2.86v-8.305c0-1.1.385-2.035 1.155-2.805.807-.807 1.76-1.21 2.86-1.21h4.29c.587 0 1.063-.183 1.43-.55.403-.403.605-.88.605-1.43v-2.035c0-.55-.202-1.008-.605-1.375-.367-.403-.843-.605-1.43-.605h-5.94l1.155-5.17h7.975c1.1 0 2.035.403 2.805 1.21.807.77 1.21 1.705 1.21 2.805V194h-11.495Zm3.135-5.17h3.19v-5.995h-3.19c-.55 0-1.027.202-1.43.605-.367.367-.55.825-.55 1.375v2.035c0 .55.183 1.027.55 1.43.403.367.88.55 1.43.55Zm14.452 5.17v-40.04l5.17-1.155V166.5h6.545l-1.21 5.17h-5.335V194h-5.17Zm20.139 0c-1.1 0-2.053-.385-2.86-1.155-.77-.807-1.155-1.76-1.155-2.86V170.46c0-1.1.385-2.035 1.155-2.805.807-.77 1.76-1.155 2.86-1.155h7.48c1.137 0 2.09.385 2.86 1.155s1.155 1.705 1.155 2.805v8.36c0 1.1-.385 2.053-1.155 2.86-.77.77-1.723 1.155-2.86 1.155h-6.325v4.015c0 .55.184 1.027.55 1.43.404.367.899.55 1.485.55h7.15l1.155 5.17h-11.495Zm1.155-16.335h3.19c.55 0 1.009-.183 1.375-.55.404-.403.605-.88.605-1.43v-2.035a1.78 1.78 0 0 0-.605-1.375 1.781 1.781 0 0 0-1.375-.605h-1.155c-.586 0-1.081.202-1.485.605-.366.367-.55.825-.55 1.375v4.015Z" fill="#fff"/></svg>